<svg width="24" height="24" viewBox="0 0 24 24" fill="none" xmlns="http://www.w3.org/2000/svg">
<path d="M3.72343 8.55163L11.5933 3.47105C11.8241 3.32215 12.1219 3.32215 12.3526 3.47105L20.2234 8.55163C20.4226 8.68099 20.5436 8.90249 20.5436 9.14075V9.69264C20.5436 10.0789 20.2299 10.3925 19.8428 10.3925H4.10314C3.71599 10.3925 3.40234 10.0789 3.40234 9.69264V9.14075C3.40234 8.90249 3.52333 8.68099 3.72343 8.55163Z" stroke="#1864AB" stroke-width="1.5" stroke-linecap="round" stroke-linejoin="round"/>
<path d="M11.9707 7.45508V7.46424" stroke="#1864AB" stroke-width="1.5" stroke-linecap="round" stroke-linejoin="round"/>
<path fill-rule="evenodd" clip-rule="evenodd" d="M20.5691 20.0444L20.1978 18.3589C20.1485 18.1346 19.9493 17.9746 19.7194 17.9746H4.22455C3.99467 17.9746 3.79551 18.1346 3.74618 18.3589L3.37485 20.0444C3.30784 20.3496 3.5405 20.6391 3.85321 20.6391H20.0917C20.4044 20.6391 20.6361 20.3496 20.5691 20.0444Z" stroke="#1864AB" stroke-width="1.5" stroke-linecap="round" stroke-linejoin="round"/>
<path d="M14.1375 10.3906V17.9739M18.471 10.3906V17.9739M5.46875 10.3906V17.9739M9.80222 10.3906V17.9739" stroke="#1864AB" stroke-width="1.5" stroke-linecap="round" stroke-linejoin="round"/>
</svg>
